<svg width="200" height="200" viewBox="0 0 200 200" fill="none" xmlns="http://www.w3.org/2000/svg">
<circle cx="100" cy="100" r="100" fill="#0C0C0C"/>
<path d="M50 50H108.976C135.802 50 157.549 71.7469 157.549 98.573C157.549 125.399 135.802 147.146 108.976 147.146H50V50Z" fill="#E3E3E3"/>
<path d="M67.4514 98.779C67.4514 79.7961 82.84 64.4075 101.823 64.4075H140.628C159.611 64.4075 175 79.7961 175 98.779C175 117.762 159.611 133.151 140.628 133.151H101.823C82.8401 133.151 67.4514 117.762 67.4514 98.779Z" fill="#0C0C0C"/>
<path d="M84.4968 98.7787C84.4968 92.2995 89.7492 87.0471 96.2284 87.0471H145.817C152.296 87.0471 157.549 92.2995 157.549 98.7787C157.549 105.258 152.296 110.51 145.817 110.51H96.2284C89.7492 110.51 84.4968 105.258 84.4968 98.7787Z" fill="#E3E3E3"/>
</svg>
